<?xml version="1.0" encoding="utf-8"?>
<!-- Generator: Adobe Illustrator 21.0.2, SVG Export Plug-In . SVG Version: 6.00 Build 0)  -->
<svg version="1.1" id="Lag_1" xmlns="http://www.w3.org/2000/svg" xmlns:xlink="http://www.w3.org/1999/xlink" x="0px" y="0px"
	 viewBox="0 0 77.6 77.6" style="enable-background:new 0 0 77.6 77.6;" xml:space="preserve">
<style type="text/css">
	.st0{fill:#555555;}
</style>
<title>close</title>
<path class="st0" d="M53.8,38.8l20.7-20.7c4.1-4.1,4.1-10.9,0-15s-10.9-4.1-15,0l0,0L38.8,23.8L18,3.1c-4.1-4.1-10.9-4.1-15,0
	s-4.1,10.9,0,15l0,0l20.7,20.7L3,59.5c-4.1,4.1-4.1,10.9,0,15s10.9,4.1,15,0l20.7-20.7l20.7,20.7c4.1,4.1,10.9,4.1,15,0
	s4.1-10.9,0-15L53.8,38.8z"/>
</svg>
