<?xml version="1.0" encoding="utf-8"?>
<!-- Generator: Adobe Illustrator 21.0.2, SVG Export Plug-In . SVG Version: 6.00 Build 0)  -->
<svg version="1.1" id="Lag_1" xmlns="http://www.w3.org/2000/svg" xmlns:xlink="http://www.w3.org/1999/xlink" x="0px" y="0px"
	 viewBox="0 0 98.1 98.2" style="enable-background:new 0 0 98.1 98.2;" xml:space="preserve">
<title>close</title>
<path d="M10.2,96.9L1.3,88c-1.7-1.7-1.7-4.5,0-6.3L81.7,1.3c1.7-1.7,4.5-1.7,6.3,0l8.8,8.8c1.7,1.7,1.7,4.5,0,6.3L16.5,96.9
	C14.7,98.6,11.9,98.6,10.2,96.9z"/>
<path d="M1.3,10.2l8.9-8.9c1.7-1.7,4.5-1.7,6.3,0l80.4,80.4c1.7,1.7,1.7,4.5,0,6.3l-8.8,8.8c-1.7,1.7-4.5,1.7-6.3,0L1.3,16.5
	C-0.4,14.7-0.4,11.9,1.3,10.2z"/>
</svg>
