<?xml version="1.0" encoding="utf-8"?>
<!-- Generator: Adobe Illustrator 21.0.2, SVG Export Plug-In . SVG Version: 6.00 Build 0)  -->
<svg version="1.1" id="Lag_1" xmlns="http://www.w3.org/2000/svg" xmlns:xlink="http://www.w3.org/1999/xlink" x="0px" y="0px"
	 viewBox="0 0 48.1 48.1" style="enable-background:new 0 0 48.1 48.1;" xml:space="preserve">
<polyline points="19.2,38.5 19.2,28.9 9.6,28.9 9.6,38.5 19.2,38.5 "/>
<polyline points="0,38.5 0,48.1 9.6,48.1 9.6,38.5 0,38.5 "/>
<polyline points="9.6,19.2 19.2,19.2 19.2,9.6 9.6,9.6 9.6,19.2 "/>
<rect width="9.6" height="9.6"/>
<g transform="matrix( 1, 0, 0, 1, 0,0) ">
	<g>
		<g id="a_1_">
			<path d="M28.9,38.5h9.6v-9.6h-9.6V38.5 M48.1,38.5h-9.6v9.6h9.6V38.5 M38.5,19.2V9.6h-9.6v9.6H38.5 M19.2,19.2v9.6h9.6v-9.6H19.2
				 M48.1,9.6V0l-9.6,0v9.6H48.1z"/>
		</g>
	</g>
</g>
</svg>
